<svg xmlns="http://www.w3.org/2000/svg" viewBox="0 0 17.73 17.68"><defs><style>.cls-1{fill:#fff;}</style></defs><g id="Layer_2" data-name="Layer 2"><g id="Layer_1-2" data-name="Layer 1"><path class="cls-1" d="M17.73,2a4.27,4.27,0,0,1-.14.64Q15.29,9.47,13,16.33a1.86,1.86,0,0,1-1.65,1.34,1.83,1.83,0,0,1-1.89-1l-2.8-5.12a1.23,1.23,0,0,0-.51-.5L1.08,8.29A1.86,1.86,0,0,1,0,6.38,1.87,1.87,0,0,1,1.38,4.69l10.49-3.5L15.13.1A2,2,0,0,1,17.73,2Zm-2.32-.58,0,0-.2.06L6,4.46l-4.2,1.4a.7.7,0,0,0-.55.76.74.74,0,0,0,.45.59l3.52,1.9,1.55.83ZM7.73,10.92s0,0,0,0q1.37,2.58,2.75,5.16a.66.66,0,0,0,.71.37.69.69,0,0,0,.59-.52Q14,9.18,16.3,2.42a.5.5,0,0,0,0-.13l-.05,0Z"/></g></g></svg>